# xmcd
#
# Track frame offsets:
#   150
#   23160
#   40475
#   59132
#   73790
#   91772
#   113142
#   133037
#   139907
#   156477
#   185295
#   202232
#   218382
#   239595
#
# Disc length: 3358 seconds
#
# Revision: 0
# Processed by: cddbd v1.5.1PL0 Copyright (c) Steve Scherf et al.
# Submitted via: uFREEDB ActiveX Control 1.5
#
DISCID=d70d1c0e
DTITLE=Espelho de Deus - Espelho de Deus
DYEAR=1900
DGENRE=Gospel and Religious
TTITLE0=Amor de Mae
TTITLE1=De bem com a vida
TTITLE2=Consagraçao a Trindade
TTITLE3=Espelho de Deus (O Rock de Jesus)
TTITLE4=Vem Espirito
TTITLE5=Renova-me
TTITLE6=Louvar sim
TTITLE7=Dialogo dos Irmaos
TTITLE8=Israel
TTITLE9=Todos Precisam Saber - A Edificar a Igreja 
TTITLE10=Diante desse Altar
TTITLE11=Alegre Estou
TTITLE12=Em Linda Manha
TTITLE13=Meu Deus e bom pra mim
EXTD=
EXTT0=
EXTT1=
EXTT2=
EXTT3=
EXTT4=
EXTT5=
EXTT6=
EXTT7=
EXTT8=
EXTT9=
EXTT10=
EXTT11=
EXTT12=
EXTT13=
PLAYORDER=
